<?xml version="1.0" encoding="UTF-8"?>
<!DOCTYPE svg PUBLIC "-//W3C//DTD SVG 1.1//EN" "http://www.w3.org/Graphics/SVG/1.1/DTD/svg11.dtd">
<svg xmlns="http://www.w3.org/2000/svg" version="1.1" width="512px" height="512px" style="shape-rendering:geometricPrecision; text-rendering:geometricPrecision; image-rendering:optimizeQuality; fill-rule:evenodd; clip-rule:evenodd" xmlns:xlink="http://www.w3.org/1999/xlink">
<g><path style="opacity:0.983" fill="#000000" d="M 169.5,-0.5 C 250.167,-0.5 330.833,-0.5 411.5,-0.5C 449.403,7.56902 472.569,30.569 481,68.5C 481.667,193.167 481.667,317.833 481,442.5C 472.569,480.431 449.403,503.431 411.5,511.5C 330.833,511.5 250.167,511.5 169.5,511.5C 129.735,503.567 106.235,479.567 99,439.5C 98.3333,414.833 98.3333,390.167 99,365.5C 105.353,348.484 117.187,342.984 134.5,349C 141.387,352.887 145.553,358.721 147,366.5C 147.333,389.5 147.667,412.5 148,435.5C 151.391,449.225 159.891,458.058 173.5,462C 212.333,462.167 251.167,462.333 290,462.5C 330.212,462.655 370.378,462.155 410.5,461C 424.586,455.242 432.086,444.742 433,429.5C 433.667,313.5 433.667,197.5 433,81.5C 432.117,66.2819 424.617,55.7819 410.5,50C 370.378,48.8447 330.212,48.3447 290,48.5C 251.167,48.6667 212.333,48.8333 173.5,49C 159.891,52.9419 151.391,61.7752 148,75.5C 147.667,96.1667 147.333,116.833 147,137.5C 139.884,155.323 127.384,160.49 109.5,153C 103.983,149.158 100.483,143.991 99,137.5C 98.3333,115.5 98.3333,93.5 99,71.5C 106.235,31.433 129.735,7.43299 169.5,-0.5 Z"/></g>
<g><path style="opacity:0.985" fill="#000000" d="M 255.5,145.5 C 262.549,144.718 269.216,145.885 275.5,149C 305.639,178.139 335.472,207.639 365,237.5C 371.078,244.783 373.078,253.116 371,262.5C 369.69,267.124 367.356,271.124 364,274.5C 334.779,304.055 305.279,333.222 275.5,362C 262.949,368.066 251.782,366.233 242,356.5C 236.008,346.45 236.008,336.45 242,326.5C 257.5,311 273,295.5 288.5,280C 207.833,279.667 127.167,279.333 46.5,279C 31.2416,272.644 26.0749,261.477 31,245.5C 34.3141,238.851 39.4808,234.351 46.5,232C 127.167,231.667 207.833,231.333 288.5,231C 273,215.5 257.5,200 242,184.5C 233.113,166.655 237.613,153.655 255.5,145.5 Z"/></g>
</svg>
