<?xml version="1.0" encoding="UTF-8"?>
<!DOCTYPE svg PUBLIC "-//W3C//DTD SVG 1.1//EN" "http://www.w3.org/Graphics/SVG/1.1/DTD/svg11.dtd">
<svg xmlns="http://www.w3.org/2000/svg" version="1.1" width="512px" height="512px" style="shape-rendering:geometricPrecision; text-rendering:geometricPrecision; image-rendering:optimizeQuality; fill-rule:evenodd; clip-rule:evenodd" xmlns:xlink="http://www.w3.org/1999/xlink">
<g><path style="opacity:0.963" fill="#000000" d="M 124.5,23.5 C 143.885,20.7778 158.385,27.7778 168,44.5C 184.411,76.9901 201.078,109.323 218,141.5C 225.93,159.034 223.43,174.867 210.5,189C 201.578,195.378 192.744,201.878 184,208.5C 183.333,210.5 183.333,212.5 184,214.5C 206.43,252.605 235.596,284.771 271.5,311C 280.314,317.154 289.481,322.654 299,327.5C 300.812,327.507 302.312,326.84 303.5,325.5C 309.14,317.36 314.973,309.36 321,301.5C 332.49,289.501 346.323,285.667 362.5,290C 398.959,308.396 435.292,327.063 471.5,346C 486.772,358.236 491.272,373.736 485,392.5C 469.727,416.77 454.06,440.77 438,464.5C 420.891,484.094 399.391,491.594 373.5,487C 346.903,484.934 321.237,478.934 296.5,469C 196.054,425.554 118.554,356.388 64,261.5C 43.8216,226.298 30.8216,188.631 25,148.5C 22.9985,135.504 22.6652,122.504 24,109.5C 26.4837,97.3638 31.9837,86.8638 40.5,78C 63.8333,62 87.1667,46 110.5,30C 115.147,27.5056 119.814,25.339 124.5,23.5 Z M 130.5,56.5 C 132.792,56.2436 134.959,56.5769 137,57.5C 154.333,90.8333 171.667,124.167 189,157.5C 190.176,161.26 189.01,164.093 185.5,166C 175.76,172.403 166.594,179.57 158,187.5C 150.122,199.31 148.455,211.977 153,225.5C 184.116,281.616 227.616,325.449 283.5,357C 301.645,363.673 317.145,359.84 330,345.5C 335,338.5 340,331.5 345,324.5C 346.413,322.586 348.247,321.253 350.5,320.5C 384.657,337.745 418.657,355.245 452.5,373C 455.083,376.55 454.917,380.05 452,383.5C 437.892,405.273 423.392,426.773 408.5,448C 403.016,452.054 396.849,454.554 390,455.5C 358.118,454.19 327.618,447.024 298.5,434C 241.718,408.222 192.551,372.056 151,325.5C 118.192,288.983 92.1922,247.983 73,202.5C 62.8209,176.271 56.9876,149.105 55.5,121C 56.3881,113.318 59.3881,106.651 64.5,101C 86.6773,86.3037 108.677,71.4703 130.5,56.5 Z"/></g>
</svg>
